<?xml version="1.0" standalone="no"?>
<!DOCTYPE svg PUBLIC "-//W3C//DTD SVG 20010904//EN"
 "http://www.w3.org/TR/2001/REC-SVG-20010904/DTD/svg10.dtd">
<svg version="1.0" xmlns="http://www.w3.org/2000/svg"
 width="1413.000000pt" height="1413.000000pt" viewBox="0 0 1413.000000 1413.000000"
 preserveAspectRatio="xMidYMid meet">
<metadata>
Created by potrace 1.11, written by Peter Selinger 2001-2013
</metadata>
<g transform="translate(0.000000,1413.000000) scale(0.100000,-0.100000)"
fill="#000000" stroke="none">
<path d="M6187 10293 c-1 0 -75 -4 -164 -7 -88 -4 -169 -8 -180 -10 -10 -2
-49 -7 -86 -11 -379 -38 -725 -160 -1002 -353 -263 -184 -476 -418 -642 -707
-39 -67 -103 -198 -103 -210 0 -3 -8 -24 -19 -48 -56 -126 -94 -273 -126 -487
-16 -106 -19 -409 -19 -2013 -1 -1678 0 -1824 16 -1905 55 -280 216 -499 448
-610 137 -65 251 -84 493 -84 266 0 333 4 374 22 82 37 132 120 134 225 2 101
-44 180 -125 220 -59 28 -50 27 -301 25 -139 -1 -210 3 -264 14 -174 37 -259
119 -279 272 -8 67 -7 3548 2 3664 26 352 168 693 396 952 175 199 427 368
680 456 73 25 194 56 202 52 2 -1 14 3 28 8 24 9 78 17 194 28 71 7 3589 5
3630 -1 156 -26 269 -151 299 -332 10 -63 12 -514 11 -2313 -1 -2069 -2 -2239
-18 -2295 -70 -247 -249 -410 -531 -481 -65 -17 -159 -18 -1277 -20 -1189 -2
-1207 -3 -1250 -23 -55 -25 -82 -49 -107 -95 -40 -71 -42 -191 -3 -262 20 -38
90 -93 132 -104 46 -12 2476 -9 2545 4 97 18 243 59 312 87 177 74 371 238
486 410 89 135 161 315 182 459 4 25 11 70 15 100 11 67 6 4571 -4 4620 -36
173 -58 236 -113 327 -152 249 -404 387 -748 409 -44 3 -730 7 -1525 9 -795 2
-1501 6 -1568 7 -68 2 -124 2 -125 1z"/>
<path d="M6655 9125 c-22 -11 -52 -38 -67 -60 -67 -100 -54 -289 25 -363 51
-48 68 -50 462 -48 349 1 373 2 400 20 42 27 49 36 76 87 21 38 24 58 24 139
-1 78 -5 103 -22 136 -26 50 -86 104 -116 105 -12 1 -184 2 -382 3 -342 1
-362 0 -400 -19z"/>
<path d="M6929 8426 c-2 -2 -31 -6 -64 -10 -74 -8 -225 -47 -313 -83 -469
-186 -793 -617 -850 -1128 -4 -38 -7 -770 -6 -1626 1 -1530 2 -1556 21 -1600
82 -185 360 -195 447 -16 l26 53 0 940 c-1 516 -1 965 -1 997 l1 58 43 -34
c152 -124 411 -233 622 -263 28 -3 59 -8 70 -11 23 -5 245 -4 290 1 227 26
432 102 610 224 272 188 475 481 559 809 65 253 53 521 -35 770 -174 493 -583
833 -1099 913 -52 8 -314 12 -321 6z m288 -500 c244 -52 434 -179 567 -380
175 -263 197 -574 61 -851 -169 -347 -560 -550 -944 -490 -158 24 -324 110
-451 235 -142 139 -217 278 -255 475 -7 39 -7 201 0 251 36 233 176 468 361
605 109 80 246 141 349 156 22 3 42 7 44 9 11 10 207 2 268 -10z"/>
</g>
</svg>
