<?xml version="1.0" standalone="no"?>
<!DOCTYPE svg PUBLIC "-//W3C//DTD SVG 20010904//EN"
 "http://www.w3.org/TR/2001/REC-SVG-20010904/DTD/svg10.dtd">
<svg version="1.0" xmlns="http://www.w3.org/2000/svg"
 width="180.000000pt" height="180.000000pt" viewBox="0 0 180.000000 180.000000"
 preserveAspectRatio="xMidYMid meet">
<metadata>
Created by potrace 1.11, written by Peter Selinger 2001-2013
</metadata>
<g transform="translate(0.000000,180.000000) scale(0.100000,-0.100000)"
fill="#000000" stroke="none">
<path d="M0 900 l0 -900 900 0 900 0 0 900 0 900 -900 0 -900 0 0 -900z m1643
842 c55 -28 103 -82 117 -132 6 -21 10 -293 10 -682 0 -636 0 -648 -21 -704
-27 -73 -86 -136 -158 -171 l-56 -28 -358 -3 c-402 -4 -407 -3 -407 61 0 64
-15 61 372 67 296 4 359 8 388 21 42 20 85 64 99 102 7 19 11 237 11 656 l0
628 -22 33 c-15 22 -36 37 -57 43 -19 4 -262 7 -540 5 -553 -4 -535 -3 -649
-66 -90 -51 -169 -156 -198 -266 -18 -66 -21 -1075 -3 -1108 16 -30 71 -48
145 -48 80 0 104 -16 104 -66 0 -54 -31 -67 -144 -62 -83 3 -100 7 -141 33
-33 21 -57 47 -79 85 l-31 55 -3 475 c-4 625 4 693 97 836 46 73 87 113 162
165 138 93 177 98 799 96 l515 -2 48 -23z m-626 -290 c23 -15 34 -62 20 -90
-12 -27 -14 -27 -128 -30 -131 -3 -143 3 -143 65 0 54 21 63 138 63 56 0 106
-4 113 -8z m37 -220 c69 -31 148 -111 182 -185 26 -55 29 -73 29 -157 0 -88
-3 -100 -33 -159 -39 -73 -103 -140 -166 -170 -115 -56 -274 -44 -377 29 l-29
21 0 -280 c0 -311 0 -311 -65 -311 -67 0 -66 -8 -63 506 l3 459 27 57 c34 74
104 147 171 181 94 48 224 51 321 9z"/>
<path d="M802 1109 c-58 -29 -109 -92 -128 -157 -67 -229 226 -394 394 -222
87 91 94 214 17 316 -59 77 -194 107 -283 63z"/>
</g>
</svg>
